<svg xmlns="http://www.w3.org/2000/svg" viewBox="0 0 1224 400.59"><defs><style>.cls-1,.cls-10,.cls-11,.cls-15,.cls-16,.cls-17,.cls-18,.cls-19,.cls-2,.cls-20,.cls-21,.cls-22,.cls-23,.cls-24,.cls-25,.cls-26,.cls-3,.cls-4,.cls-5,.cls-6,.cls-7,.cls-8,.cls-9{fill:none;}.cls-1,.cls-19,.cls-20,.cls-22,.cls-3,.cls-8{stroke:#d1d3d4;}.cls-1,.cls-10,.cls-11,.cls-15,.cls-16,.cls-17,.cls-18,.cls-2,.cls-20,.cls-21,.cls-22,.cls-23,.cls-24,.cls-25,.cls-26,.cls-3,.cls-4,.cls-5,.cls-6,.cls-7,.cls-8,.cls-9{stroke-miterlimit:10;}.cls-1,.cls-10,.cls-19,.cls-2,.cls-4{stroke-width:2px;}.cls-15,.cls-16,.cls-2,.cls-23,.cls-6,.cls-7,.cls-9{stroke:#f1f2f2;}.cls-3{stroke-width:1.94px;}.cls-11,.cls-17,.cls-21,.cls-24,.cls-25,.cls-26,.cls-4,.cls-5{stroke:#e6e7e8;}.cls-5,.cls-6{stroke-width:1.49px;}.cls-21,.cls-22,.cls-7{stroke-width:1.69px;}.cls-11,.cls-8,.cls-9{stroke-width:2.04px;}.cls-10,.cls-18{stroke:#bcbec0;}.cls-12{fill:#d1d3d4;}.cls-13{fill:#e6e7e8;}.cls-14{fill:#f1f2f2;}.cls-15{stroke-width:1.79px;}.cls-16{stroke-width:2.19px;}.cls-17{stroke-width:2.22px;}.cls-18,.cls-20{stroke-width:1.65px;}.cls-23{stroke-width:2.31px;}.cls-24{stroke-width:1.72px;}.cls-25{stroke-width:2.04px;}.cls-26{stroke-width:1.98px;}.cls-27{font-size:72px;}.cls-27,.cls-29{fill:#01424a;font-family:Elianto-Regular, Elianto;}.cls-28,.cls-29{font-size:61.52px;}</style></defs><title>architecture header</title><g id="Layer_4" data-name="Layer 4"><path class="cls-1" d="M658,134c-.42-.62,0-22.12,0-22.12h5.33v13.75"/></g><g id="Layer_5" data-name="Layer 5"><line class="cls-1" x1="476.5" y1="67.95" x2="398.73" y2="-0.98"/><line class="cls-1" x1="504.75" y1="27.5" x2="498.16" y2="21.66"/><line class="cls-1" x1="529.8" y1="27.29" x2="523.2" y2="21.45"/><line class="cls-2" x1="498.16" y1="48.75" x2="442.04" y2="-0.98"/><polyline class="cls-3" points="498.16 67.71 498.16 21.45 523.92 21.45"/><line class="cls-2" x1="372" y1="-11.5" x2="371" y2="152.42"/><polyline class="cls-4" points="519.25 78.75 575.96 78.95 576 79 582.6 84.84"/><polyline class="cls-4" points="604.44 37.67 583.61 16.59 561.28 16.59 582.11 37.67"/><line class="cls-4" x1="561.13" y1="16.35" x2="561.13" y2="78.65"/><polyline class="cls-4" points="932.27 294.33 933.06 350.73 950.67 366.33"/><polyline class="cls-4" points="1070.26 151.67 1070.26 181.25 1087.86 196.85"/><line class="cls-4" x1="1130.73" y1="228.61" x2="1105.05" y2="205.84"/><line class="cls-5" x1="990.9" y1="57.28" x2="972.5" y2="39.75"/><path class="cls-5" d="M942,87.22,923.13,69.37Z"/><polyline class="cls-6" points="1040.16 40 972.5 39.75 972.5 39.75 972.36 98.33"/><path class="cls-5" d="M923.6,69.69,886.67,69Z"/><line class="cls-5" x1="1155.33" y1="38.27" x2="1136.54" y2="19.75"/><line class="cls-5" x1="1102" y1="29.5" x2="1073.33" y2="-0.17"/><line class="cls-5" x1="1040.16" y1="29.5" x2="1011.49" y2="-0.17"/><line class="cls-5" x1="1137" y1="20" x2="1092.96" y2="20.15"/><path class="cls-5" d="M886.54,42.41l-16-15Z"/><path class="cls-5" d="M722,42.33,709,28.1Z"/><polyline class="cls-5" points="871.04 27.75 709.3 27.45 709.3 151.67"/><line class="cls-2" x1="1002.5" x2="1002.75" y2="39.75"/></g><g id="Layer_2" data-name="Layer 2"><rect class="cls-7" x="1089" y="151.38" width="66.33" height="45.63"/><line class="cls-8" x1="728.21" y1="197" x2="786" y2="197"/><line class="cls-9" x1="718.81" y1="188.81" x2="691.97" y2="188.81"/><line class="cls-4" x1="413.13" y1="172.65" x2="390.06" y2="152.21"/><line class="cls-2" x1="500.2" y1="172.65" x2="476.27" y2="151.44"/><polyline class="cls-4" points="548.09 226.17 532.56 212.4 500.2 212.5"/><line class="cls-1" x1="413.13" y1="242.37" x2="312.7" y2="152.5"/><rect class="cls-2" x="582.36" y="197.99" width="81.75" height="42.75"/><rect class="cls-1" x="658.02" y="152.03" width="33.95" height="45.95"/><rect class="cls-1" x="674.99" y="171.33" width="11.73" height="26.65"/><polyline class="cls-10" points="530.98 182.73 516.86 170.21 516.95 152.01"/><polyline class="cls-11" points="582.38 240.71 566.02 227.67 566.1 182.75"/><circle class="cls-12" cx="678.17" cy="184.91" r="1.07"/><rect class="cls-2" x="664.11" y="207.59" width="76.25" height="44.75"/><path class="cls-12" d="M659,105.59c1.7-9.21-.14-16.46-9.05-20.34-10.69-4.65-25-16.7-15.59-29.52,5.62-7.63,17.15-6.86,22.48.76,4,5.67,4.09,15.62-2.7,19.28-8.11,4.37-18.59-3.19-16-12.37,1.3-4.65,7.24-6.82,11.36-4.32a6.73,6.73,0,0,1,1.85,9.59c-5.25,7.71-10.39-4.89-4.54-4.35,1.28.12,1.27-1.88,0-2-6.28-.58-6.19,7.12-1.47,9.37,5.77,2.75,10.78-3.93,9.08-9.27-2-6.18-9.65-8.16-14.8-4.54s-4.43,11.68-.93,16.32c4.09,5.43,12.27,6.4,17.75,2.49s6.22-12,3.87-17.93c-6-15.24-28.83-12.75-30.64,3.73-.89,8.08,4.05,15,10.25,19.66C643.64,85,648,86.08,652,88.41c6.07,3.54,6.22,10.43,5.07,16.65-.23,1.26,1.69,1.8,1.93.53Z"/><path class="cls-13" d="M666.89,88.49c1.45-3.22,3.47-6,7.38-5.79,2,.09,3.71.61,5.75.28a12.84,12.84,0,0,0,7.69-4c3.54-4.31.91-12.18-4.89-12.94-5-.65-10.29,4.66-7,9.49s8.44,1.43,8.53-3.09a1,1,0,0,0-2,0c0-.47-.71,3.11-1.48,3.2-1.94.24-4.65-2.57-3.9-4.54a4.56,4.56,0,0,1,2.17-2c3.84-2.25,8.36.91,8.28,5.24-.06,3.3-3.14,5.42-6,6.31-3.36,1.05-6.54-.58-9.81.29s-5.17,3.71-6.47,6.61c-.53,1.16,1.2,2.18,1.73,1Z"/><path class="cls-14" d="M668.95,74.54a15.39,15.39,0,0,0,1.57-8.73c-.61-4.73-1.64-8,2.12-11.92,2.73-2.87,6.3-2.45,9.22-4.6a12.44,12.44,0,0,0,3.78-5.46c3.34-8.22-.07-20.07-8.74-23.6-11.7-4.77-23.47,10.38-14.46,20a11,11,0,0,0,14.53.92c3.84-3.18,4.18-10,.2-13.29-3.77-3.11-10.68-1.17-10.59,4.19.07,4.13,5.47,7.17,7.79,2.8.61-1.14-1.12-2.15-1.73-1Q669.36,36,669,33.2q-1.22-2.08.94-4c1.78-1.52,3.84-.6,5.46.53C680,33,677.95,39.52,672.91,41c-8.13,2.47-14.17-6.69-10.54-13.76a11.07,11.07,0,0,1,17.1-3,18,18,0,0,1,5.46,13.07,14.38,14.38,0,0,1-1.51,6.55c-2.32,4.8-6.49,4.15-10.3,6.89a13.37,13.37,0,0,0-5.44,8.29c-.79,5.26,2.06,8.9-.46,14.42-.53,1.16,1.19,2.18,1.73,1Z"/><rect class="cls-1" x="582.11" y="37.67" width="22.33" height="114.37"/><rect class="cls-4" x="531.51" y="152.24" width="34.1" height="30.12"/><rect class="cls-15" x="519.81" y="84.5" width="62.29" height="67.53"/><rect class="cls-4" x="476.5" y="67.71" width="43.31" height="84.5"/><rect class="cls-4" x="505" y="27.5" width="24.5" height="40"/><rect class="cls-2" x="604.44" y="125.13" width="40.46" height="26.31"/><rect class="cls-2" x="722" y="42.33" width="164.67" height="109.11"/><rect class="cls-2" x="786" y="151.67" width="120.61" height="67.7"/><rect class="cls-1" x="866.67" y="87.22" width="75.33" height="64.22"/><rect class="cls-16" x="942" y="98.33" width="68" height="53.04"/><rect class="cls-17" x="991.09" y="58" width="49.07" height="49.07"/><rect class="cls-2" x="1030" y="151.67" width="22.67" height="180"/><rect class="cls-2" x="1040.16" y="29.5" width="61.84" height="122.17"/><rect class="cls-1" x="1102" y="37.67" width="53.33" height="23.49"/><rect class="cls-18" x="1101.6" y="61.16" width="29.42" height="29.42"/><line class="cls-19" x1="-0.77" y1="152.88" x2="1229.45" y2="151.23"/><rect class="cls-20" x="906.61" y="199.33" width="71.39" height="95"/><rect class="cls-21" x="1052.67" y="197" width="52" height="22.45"/><rect class="cls-22" x="1131.03" y="197" width="33.64" height="31.33"/><rect class="cls-23" x="950.67" y="262.65" width="79.33" height="103.68"/><rect class="cls-2" x="740.36" y="219.58" width="166.25" height="94.33"/><rect class="cls-10" x="413.13" y="172.65" width="87.07" height="69.72"/><polyline class="cls-4" points="483.75 243.37 483.61 260.37 483.61 259.37 500.2 274.08"/><rect class="cls-1" x="500.2" y="226.17" width="47.91" height="47.91"/><line class="cls-2" x1="656.44" y1="150.81" x2="645.15" y2="140.8"/><polyline class="cls-4" points="640 153.25 640.41 182.88 658.02 198.48"/><polyline class="cls-4" points="689.82 252.34 690.06 269.66 707.67 285.27"/><polyline class="cls-24" points="725.63 285.27 725.84 300.63 740.57 314.48"/><line class="cls-25" x1="582.36" y1="197.99" x2="565.6" y2="183.84"/><line class="cls-26" x1="564.99" y1="182.74" x2="640.41" y2="182.88"/><line class="cls-11" x1="664.11" y1="252.34" x2="650.8" y2="240.74"/><line class="cls-11" x1="740.36" y1="207.59" x2="718.81" y2="188.81"/><rect class="cls-20" x="707.67" y="252.34" width="32.69" height="32.69"/></g><g id="Layer_1" data-name="Layer 1"><text class="cls-27" transform="translate(645.15 151.31)">A<tspan class="cls-28" x="59.98" y="0">RCHITECTURE</tspan></text><text class="cls-29" transform="translate(814.97 199)">projects</text></g></svg>