<svg xmlns="http://www.w3.org/2000/svg" viewBox="0 0 1224 387"><defs><style>.cls-1,.cls-2,.cls-3,.cls-4,.cls-5{fill:none;}.cls-1,.cls-5{stroke:#d1d3d4;}.cls-1,.cls-2,.cls-3,.cls-4{stroke-width:2px;}.cls-2{stroke:#f1f2f2;}.cls-3{stroke:#e6e7e8;}.cls-4{stroke:#bcbec0;}.cls-5{stroke-width:2.03px;}.cls-6{font-size:61.52px;fill:#01424a;font-family:Elianto-Regular, Elianto;}.cls-7{font-size:17.94px;}.cls-8{font-size:15.38px;}</style></defs><title>design and art header</title><g id="Layer_3" data-name="Layer 3"><polygon class="cls-1" points="978.06 174.21 894.22 222.16 810.77 173.53 811.16 76.94 895 28.99 978.45 77.62 978.06 174.21"/><polygon class="cls-2" points="1061.42 169.29 977.58 217.24 894.13 168.61 894.52 72.03 978.37 24.07 1061.82 72.7 1061.42 169.29"/><polygon class="cls-3" points="1145.99 182.9 1062.15 230.86 978.7 182.23 979.09 85.64 1062.93 37.69 1146.38 86.32 1145.99 182.9"/><polygon class="cls-3" points="1145.99 226.16 1062.15 274.12 978.7 225.48 979.09 128.9 1062.93 80.94 1146.38 129.57 1145.99 226.16"/><polygon class="cls-3" points="1145.66 265.32 1061.82 313.27 978.37 264.64 978.76 168.05 1062.6 120.1 1146.05 168.73 1145.66 265.32"/><polygon class="cls-2" points="1229.19 121.07 1145.35 169.02 1061.9 120.39 1062.29 23.8 1146.13 -24.15 1229.59 24.48 1229.19 121.07"/><polygon class="cls-1" points="1229 168.66 1145.16 216.61 1061.71 167.98 1062.1 71.39 1145.94 23.44 1229.39 72.07 1229 168.66"/><polygon class="cls-1" points="1228.67 207.81 1144.83 255.77 1061.38 207.14 1061.77 110.55 1145.61 62.6 1229.06 111.23 1228.67 207.81"/><line class="cls-1" x1="810.77" y1="120.66" x2="895" y2="71.75"/><line class="cls-1" x1="894.61" y1="168.89" x2="810.77" y2="120.66"/><polygon class="cls-2" points="811.16 76.94 895.52 120.66 810.77 173.53 641.38 120.66 811.16 76.94"/><polygon class="cls-3" points="809.59 120.98 724.76 267.91 555.11 267.91 470.28 120.98 555.11 -25.95 724.76 -25.95 809.59 120.98"/><polyline class="cls-3" points="810.77 173.53 894.22 331.85 894.22 222.16 724.76 267.91 641.38 120.66 723.02 -28.07"/><polyline class="cls-1" points="811.16 76.94 894.61 -64.67 895 28.99 723.02 -28.07"/><polyline class="cls-4" points="625.98 293.59 469.32 121.64 600.63 -28.16"/><polygon class="cls-2" points="688.29 141.49 600.48 141.49 556.57 217.54 600.48 293.59 688.29 293.59 732.2 217.54 688.29 141.49"/><polygon class="cls-3" points="773.08 197.77 685.26 197.77 641.35 273.82 685.26 349.88 773.08 349.88 816.99 273.82 773.08 197.77"/><polygon class="cls-3" points="685.29 -49.56 597.48 -49.56 553.57 26.5 597.48 102.55 685.29 102.55 729.2 26.5 685.29 -49.56"/><polyline class="cls-5" points="685.32 350.25 815.78 273.72 978.37 264.64"/><line class="cls-3" x1="979.56" y1="24.07" x2="829.27" y2="-35.54"/><line class="cls-1" y1="122.31" x2="1230.22" y2="120.66"/><circle class="cls-2" cx="57.31" cy="162.89" r="12.34"/><line class="cls-3" x1="481.31" y1="141.49" x2="234.48" y2="141.49"/><line class="cls-1" x1="369.21" y1="161.49" x2="86.82" y2="162.75"/><line class="cls-2" x1="453.02" y1="182.2" x2="230.32" y2="183.2"/><line class="cls-3" x1="553.57" y1="26.5" x2="556.57" y2="217.54"/><polygon class="cls-1" points="685.29 45.51 597.47 45.51 553.56 121.56 597.47 197.62 685.29 197.62 729.2 121.56 685.29 45.51"/></g><g id="Layer_1" data-name="Layer 1"><text class="cls-6" transform="translate(738.79 120.55)">ART<tspan class="cls-7" x="143.52" y="0"> </tspan><tspan x="152.5" y="0">&amp;</tspan><tspan class="cls-8" x="195.13" y="0"> </tspan><tspan x="202.82" y="0">DESIGN</tspan></text><text class="cls-6" transform="translate(882.49 168.32)">projects</text></g></svg>