<?xml version="1.0" encoding="utf-8"?>
<!-- Generator: Adobe Illustrator 21.0.0, SVG Export Plug-In . SVG Version: 6.00 Build 0)  -->
<svg version="1.1" id="Layer_1" xmlns="http://www.w3.org/2000/svg" xmlns:xlink="http://www.w3.org/1999/xlink" x="0px" y="0px"
	 viewBox="0 0 1224 194" style="enable-background:new 0 0 1224 194;" xml:space="preserve">
<style type="text/css">
	.st0{fill:none;}
	.st1{fill:#003F35;}
	.st2{font-family:'Elianto-Regular';}
	.st3{font-size:60px;}
	.st4{fill:none;stroke:#04434A;stroke-width:1.6945;stroke-miterlimit:10;}
	.st5{fill:none;stroke:#04434A;stroke-width:1.5164;stroke-miterlimit:10;}
	.st6{fill:none;stroke:#04434A;stroke-width:1.0811;stroke-miterlimit:10;}
	.st7{fill:none;stroke:#04434A;stroke-width:1.6371;stroke-miterlimit:10;}
	.st8{fill:none;stroke:#04434A;stroke-width:1.3458;stroke-miterlimit:10;}
	.st9{fill:#04434A;}
	.st10{fill:none;stroke:#04434A;stroke-width:0.12;stroke-miterlimit:10;}
</style>
<rect x="430" y="36" class="st0" width="595.2" height="335.6"/>
<text transform="matrix(1 0 0 1 614.5596 82.3608)"><tspan x="0" y="0" class="st1 st2 st3">FOUNDATION</tspan><tspan x="80" y="72" class="st1 st2 st3">DRAWINGS</tspan></text>
<rect x="1064.2" y="126" class="st4" width="16.6" height="16.6"/>
<rect x="1080.7" y="98.4" class="st4" width="30.1" height="27.6"/>
<rect x="1080.7" y="126" class="st4" width="17.9" height="33.4"/>
<rect x="1111" y="111.9" class="st4" width="49.4" height="19.9"/>
<rect x="1111" y="80" class="st4" width="38.6" height="31.9"/>
<rect x="1134" y="103" class="st4" width="10.7" height="28.8"/>
<polygon class="st5" points="1157,80 1104,80 1131.7,59.9 "/>
<rect x="1116.6" y="87.5" class="st5" width="5.9" height="9.1"/>
<polyline class="st5" points="1064,125.9 1059.6,130 1059.7,146.7 1064.2,142.7 "/>
<path class="st5" d="M1082,164.9"/>
<path class="st5" d="M1065.6,146.7"/>
<line class="st4" x1="1076.2" y1="147.4" x2="1059.4" y2="147.3"/>
<path class="st6" d="M1099.4,163.4"/>
<line class="st4" x1="1080.7" y1="142.6" x2="1076.2" y2="147.4"/>
<line class="st4" x1="1080.7" y1="159.4" x2="1076.2" y2="164.2"/>
<path class="st4" d="M1098.7,159.4l-4.5,4.8h-17.9c-0.1,0,0-17,0-17"/>
<path class="st4" d="M1080.7,98.4l-4.5,4.8L1080.7,98.4z"/>
<path class="st4" d="M1076.2,103.2l-0.1,22.8L1076.2,103.2z"/>
<path class="st7" d="M1076.5,103.1c-0.3,0.1-0.4,0.1-0.2,0.4"/>
<polyline class="st4" points="1160.4,131.9 1155.9,136.7 1106.5,136.7 1111,131.9 "/>
<path class="st4" d="M1157,80l-4.8,4.8L1157,80z"/>
<path class="st4" d="M1152.2,84.8l-2.5,0L1152.2,84.8z"/>
<line class="st4" x1="1152" y1="84.8" x2="1152.4" y2="84.7"/>
<line class="st4" x1="1111" y1="80" x2="1106.5" y2="84.8"/>
<line class="st4" x1="1106.5" y1="84.8" x2="1106.5" y2="98.4"/>
<polyline class="st8" points="1104,80 1099.1,84.8 1106.5,84.8 "/>
<line class="st4" x1="1110.5" y1="126.3" x2="1106" y2="131.1"/>
<line class="st4" x1="1106" y1="137.1" x2="1106.1" y2="130.8"/>
<line class="st4" x1="1106" y1="131.1" x2="1098.6" y2="131.1"/>
<path class="st4" d="M1141.9,68c-0.2-0.2,0-9.1,0-9.1h5.7v13.6"/>
<g>
	<g>
		<path class="st9" d="M1146.2,55.6c0.5-2.7,1.4-4.5,4-5.5c1.9-0.7,3.9-1.1,5.6-2.1c2.7-1.5,3.6-3.8,3.2-6.8c-0.4-2.7-2.1-4.9-5.1-5
			c-2.5-0.1-4.6,1.4-4.9,3.9c-0.2,1.8,0,3.6,1.4,4.5c2.1,1.2,5.2,1,6-1.5c1.7-5.5-6.6-4.7-4.6-0.4c0.3,0.7,1.4,0.1,1-0.6
			c-1.2-2.6,4.9-2.5,2.1,1.2c-0.8,1-2.3,0.6-3.2,0.4c-1.4-0.2-1.1,0-1.3-1.1c-0.3-1.7-0.3-1.9,0.9-3.5c1.3-1.7,3.4-2.3,5.2-0.5
			c1.9,1.8,1.7,5.7,0.1,7.4c-2.3,2.4-5.6,2.1-8.3,3.6c-2.1,1.2-2.9,3.6-3.3,5.8C1144.9,56,1146.1,56.4,1146.2,55.6L1146.2,55.6z"/>
	</g>
</g>
<g>
	<g>
		<path class="st9" d="M1144.2,50.3c3.3-4.1,3.5-8.3,1.5-13c-1-2.3-2.8-4.3-3.4-6.7c-0.2-0.7-0.7-3.2-0.3-3.9c1.5-3.7,8,2,2.3,1.3
			c-0.8-0.1-0.8,1.1,0,1.2c6.5,0.8,2.4-9.9-2.4-4.5c-1.5,1.7-1.3,4-0.7,6.2c1.9,6.7,8.2,11.1,2.3,18.5
			C1142.9,50.1,1143.7,50.9,1144.2,50.3L1144.2,50.3z"/>
	</g>
</g>
<path class="st10" d="M1155.4,40.1"/>
</svg>
