<svg id="Layer_1" data-name="Layer 1" xmlns="http://www.w3.org/2000/svg" viewBox="0 0 1224 194"><defs><style>.cls-1{font-size:60px;fill:#003f35;font-family:Elianto-Regular, Elianto;}.cls-2,.cls-3,.cls-4,.cls-5{fill:none;stroke:#04434a;stroke-miterlimit:10;}.cls-2{stroke-width:1.69px;}.cls-3{stroke-width:1.52px;}.cls-4{stroke-width:1.64px;}.cls-5{stroke-width:1.35px;}.cls-6{fill:#04434a;}</style></defs><title>fdrawings header</title><text class="cls-1" transform="translate(614.56 82.36)">FOUNDATION<tspan x="80.04" y="72">DRAWINGS</tspan></text><rect class="cls-2" x="1064.17" y="126.01" width="16.56" height="16.56"/><rect class="cls-2" x="1080.73" y="98.41" width="30.06" height="27.61"/><rect class="cls-2" x="1080.73" y="126.01" width="17.87" height="33.41"/><rect class="cls-2" x="1110.99" y="111.9" width="49.38" height="19.94"/><rect class="cls-2" x="1111.01" y="80" width="38.63" height="31.9"/><rect class="cls-2" x="1134" y="103.01" width="10.74" height="28.83"/><polygon class="cls-3" points="1156.98 80 1104.02 80 1131.7 59.94 1156.98 80"/><rect class="cls-3" x="1116.63" y="87.54" width="5.86" height="9.13"/><polyline class="cls-3" points="1063.97 125.87 1059.63 130.03 1059.69 146.73 1064.17 142.72"/><line class="cls-2" x1="1076.23" y1="147.38" x2="1059.35" y2="147.27"/><line class="cls-2" x1="1080.73" y1="142.57" x2="1076.23" y2="147.38"/><line class="cls-2" x1="1080.73" y1="159.43" x2="1076.23" y2="164.23"/><path class="cls-2" d="M1098.72,159.43l-4.5,4.8h-17.95c-.09,0,0-17,0-17"/><path class="cls-2" d="M1080.73,98.41l-4.5,4.8Z"/><path class="cls-2" d="M1076.23,103.21l-.09,22.8Z"/><path class="cls-4" d="M1076.52,103.13c-.28.05-.43.09-.21.38"/><polyline class="cls-2" points="1160.38 131.89 1155.88 136.69 1106.52 136.69 1111.01 131.89"/><path class="cls-2" d="M1157,80l-4.8,4.8Z"/><path class="cls-2" d="M1152.18,84.8h0Z"/><line class="cls-2" x1="1151.97" y1="84.85" x2="1152.37" y2="84.67"/><line class="cls-2" x1="1111.01" y1="80" x2="1106.51" y2="84.8"/><line class="cls-2" x1="1106.51" y1="84.8" x2="1106.54" y2="98.41"/><polyline class="cls-5" points="1104.02 80 1099.06 84.81 1106.52 84.8"/><line class="cls-2" x1="1110.52" y1="126.31" x2="1106.02" y2="131.11"/><line class="cls-2" x1="1106.03" y1="137.07" x2="1106.11" y2="130.79"/><line class="cls-2" x1="1106.02" y1="131.11" x2="1098.6" y2="131.1"/><path class="cls-2" d="M1141.9,68c-.2-.16,0-9.11,0-9.11h5.68V72.54"/><path class="cls-6" d="M1146.21,55.6c.52-2.7,1.39-4.52,4-5.51a43.54,43.54,0,0,0,5.65-2.1c2.66-1.46,3.65-3.77,3.16-6.79-.44-2.73-2.1-4.94-5.05-5a4.39,4.39,0,0,0-4.86,3.88c-.19,1.8,0,3.58,1.44,4.46,2.06,1.23,5.21,1,6-1.52,1.66-5.49-6.61-4.75-4.62-.39.32.7,1.36.09,1-.61-1.2-2.61,4.93-2.47,2.11,1.22-.76,1-2.29.56-3.23.41-1.43-.23-1.14,0-1.3-1.11-.26-1.74-.33-1.94.86-3.52s3.4-2.28,5.23-.54,1.71,5.75.11,7.43c-2.26,2.38-5.65,2.12-8.31,3.6-2.12,1.17-2.87,3.59-3.3,5.81-.14.75,1,1.08,1.16.32Z"/><path class="cls-6" d="M1144.19,50.34c3.29-4.08,3.51-8.31,1.46-13-1-2.26-2.78-4.34-3.45-6.68-.19-.68-.66-3.16-.35-3.91,1.53-3.67,8,2,2.33,1.29-.77-.09-.76,1.11,0,1.2,6.54.77,2.36-9.86-2.42-4.49-1.54,1.73-1.34,4-.71,6.23,1.88,6.65,8.25,11.14,2.3,18.51-.48.6.36,1.45.85.85Z"/></svg>