<svg id="Layer_1" data-name="Layer 1" xmlns="http://www.w3.org/2000/svg" viewBox="0 0 277 415.48"><defs><style>.cls-1{fill:#04434a;}.cls-2{fill:none;stroke-miterlimit:10;stroke-width:1.69px;}.cls-2,.cls-3{stroke:#04434a;}.cls-3{font-size:57.06px;fill:#010101;font-family:Simplifica, Simplifica;}.cls-4{letter-spacing:-0.01em;}.cls-5{letter-spacing:0em;}.cls-6{letter-spacing:0.01em;}</style></defs><title>icon about resume</title><path class="cls-1" d="M68.55,255.88v-128c0-7.15-.87-15,3-21.39,5.94-9.79,13.6-8.47,23.28-8.52,26.71-.13,53.43.1,80.14.22,12.26.06,24.53.14,36.79.13,2.25,0,4.51,0,6.75-.07,6.31-.31,12.61.82,17.49,5.22,4.08,3.67,5.16,9.25,5.17,14.53a.85.85,0,0,0,1.69,0c0-7.52-2.37-14.28-9.11-18.23-5.29-3.1-10.69-3.38-16.6-3.18-8.76.3-17.58,0-26.35,0-28.89-.12-57.78-.34-86.67-.32-7.23,0-15.31-.93-22.48.25-10.44,1.72-14.81,13.84-14.81,23q0,34.13,0,68.25v68.05a.85.85,0,0,0,1.69,0Z"/><path class="cls-1" d="M220,96.88c-10.46,1.45-18.87,10-19.24,20.7-.13,3.82,0,7.67,0,11.5V251.22c0,12.33.46,24.75,0,37.07a26.29,26.29,0,0,1-1.73,8.24c-3.71,9.87-13,12-22.4,9.32-6-1.71-11.73-5.68-13.67-11.89a20.58,20.58,0,0,1,15.15-26.25.85.85,0,0,0-.23-1.66l-122-.41c-6.2,0-11.58.43-17,4.29a20.86,20.86,0,0,0-7.92,21.77c1.63,6.79,7.4,14.55,14.74,15.86,5.22.93,11.35.13,16.64.2l37.48.44,64.07.75a.85.85,0,0,0,0-1.69L49.62,305.92a19.49,19.49,0,0,1-4.43-.27c-13.51-3.33-16.86-22.7-8.07-32,5.3-5.59,11.66-6.35,18.68-6.33l65.24.22,56.79.19-.23-1.66c-14,3.17-22.78,20.59-14,33.07,5,7.09,16,10.95,24.39,9.35,15.84-3,14.41-21.08,14.41-33.23v-154c0-1.31-.06-2.64,0-4,.46-9.95,8.4-17.51,18-18.84,1.08-.15.62-1.78-.45-1.63Z"/><path class="cls-1" d="M84.64,135.15h47.87a.85.85,0,0,0,0-1.69H84.64a.85.85,0,0,0,0,1.69Z"/><path class="cls-1" d="M93.12,144.9h83.45a.85.85,0,0,0,0-1.69H93.12a.85.85,0,0,0,0,1.69Z"/><path class="cls-1" d="M125.68,156.67h93.24a.85.85,0,0,0,0-1.69H125.68a.85.85,0,0,0,0,1.69Z"/><path class="cls-1" d="M101.75,177h59.15a.85.85,0,0,0,0-1.69H101.75a.85.85,0,0,0,0,1.69Z"/><path class="cls-1" d="M178.05,216.06h47.87a.85.85,0,0,0,0-1.69H178.05a.85.85,0,0,0,0,1.69Z"/><path class="cls-1" d="M202,228.56h47.87a.85.85,0,0,0,0-1.69H202a.85.85,0,0,0,0,1.69Z"/><path class="cls-1" d="M107.39,240h47.87a.85.85,0,0,0,0-1.69H107.39a.85.85,0,0,0,0,1.69Z"/><path class="cls-1" d="M97.14,230h33a.85.85,0,0,0,0-1.69h-33a.85.85,0,0,0,0,1.69Z"/><path class="cls-1" d="M112.09,216.06h18a.85.85,0,0,0,0-1.69h-18a.85.85,0,0,0,0,1.69Z"/><path class="cls-2" d="M242,117.46c.74,13-6.93,21-18.65,20.87a17,17,0,0,1-16.94-16.94A13.56,13.56,0,0,1,220,107.83a10.84,10.84,0,0,1,10.84,10.84,8.68,8.68,0,0,1-8.68,8.68,6.94,6.94,0,0,1-6.94-6.94,5.55,5.55,0,0,1,5.55-5.55,4.44,4.44,0,0,1,4.44,4.44,3.55,3.55,0,0,1-3.55,3.55,2.84,2.84,0,0,1-2.84-2.84"/><text class="cls-3" transform="translate(79.77 378.87)"><tspan class="cls-4">Re</tspan><tspan class="cls-5" x="37.66" y="0">s</tspan><tspan class="cls-6" x="56.67" y="0">u</tspan><tspan x="76.52" y="0">me</tspan></text></svg>