<svg id="Layer_1" data-name="Layer 1" xmlns="http://www.w3.org/2000/svg" viewBox="0 0 286.58 415.48"><defs><style>.cls-1,.cls-2,.cls-3,.cls-4{fill:none;stroke-miterlimit:10;}.cls-1,.cls-2,.cls-3,.cls-4,.cls-6{stroke:#04434a;}.cls-1{stroke-width:1.69px;}.cls-2{stroke-width:1.52px;}.cls-3{stroke-width:1.64px;}.cls-4{stroke-width:1.35px;}.cls-5{fill:#04434a;}.cls-6{font-size:57.06px;fill:#010101;font-family:Simplifica, Simplifica;}.cls-7{letter-spacing:-0.01em;}.cls-8{letter-spacing:0.03em;}.cls-9{letter-spacing:-0.02em;}.cls-10{letter-spacing:0em;}.cls-11{letter-spacing:-0.03em;}</style></defs><title>icon about architecture</title><rect class="cls-1" x="45.05" y="231.36" width="34.31" height="34.31"/><rect class="cls-1" x="79.36" y="174.18" width="62.27" height="57.19"/><rect class="cls-1" x="79.36" y="231.36" width="37.02" height="69.22"/><rect class="cls-1" x="142.06" y="202.13" width="102.3" height="41.3"/><rect class="cls-1" x="142.1" y="136.05" width="80.02" height="66.08"/><rect class="cls-1" x="189.71" y="183.71" width="22.24" height="59.73"/><polygon class="cls-2" points="237.33 136.05 127.61 136.05 184.96 94.49 237.33 136.05"/><rect class="cls-2" x="153.73" y="151.68" width="12.14" height="18.92"/><polyline class="cls-2" points="44.65 231.07 35.65 239.69 35.78 274.27 45.05 265.97"/><line class="cls-1" x1="70.05" y1="275.62" x2="35.08" y2="275.41"/><line class="cls-1" x1="79.36" y1="265.67" x2="70.05" y2="275.62"/><line class="cls-1" x1="79.36" y1="300.58" x2="70.05" y2="310.53"/><path class="cls-1" d="M116.63,300.58l-9.32,9.95H70.13c-.19,0,0-35.12,0-35.12"/><path class="cls-1" d="M79.36,174.18,70,184.12Z"/><path class="cls-1" d="M70,184.12l-.19,47.24Z"/><path class="cls-3" d="M70.64,184c-.58.11-.88.19-.43.79"/><polyline class="cls-1" points="244.35 243.54 235.04 253.49 132.78 253.49 142.09 243.54"/><path class="cls-1" d="M237.33,136.05,227.38,146Z"/><path class="cls-1" d="M227.38,146h0Z"/><line class="cls-1" x1="226.95" y1="146.09" x2="227.77" y2="145.72"/><line class="cls-1" x1="142.1" y1="136.05" x2="132.78" y2="146"/><line class="cls-1" x1="132.78" y1="146" x2="132.83" y2="174.18"/><polyline class="cls-4" points="127.61 136.05 117.34 146 132.78 146"/><line class="cls-1" x1="141.08" y1="231.99" x2="131.76" y2="241.93"/><line class="cls-1" x1="131.78" y1="254.26" x2="131.95" y2="241.25"/><line class="cls-1" x1="131.76" y1="241.93" x2="116.38" y2="241.91"/><path class="cls-1" d="M206.07,111.25c-.41-.33,0-18.88,0-18.88h11.77v28.22"/><path class="cls-5" d="M214.62,85.41c1.13-6.49,3.51-10.3,9.83-12,4.68-1.29,10.86-3.06,14.24-6.79,5.67-6.24,2.46-19.26-6.18-20.8-9-1.59-17.2,10.23-9,16.61,3.3,2.56,8.49,2.75,11.21-.72,2.28-2.92,2.16-7.38-1.06-9.47-2.94-1.91-6.89-.8-7.5,2.89-.48,2.93,2.46,5.34,5.11,3.54.9-.61.05-2.08-.86-1.46-3.42,2.33-2.91-7,2.38-3.5q4.11,5.39-1.89,8.71a7.32,7.32,0,0,1-5.41-.7c-7.17-4-2.47-13.88,4.34-14.36,10-.71,13.12,14.28,5.89,19.51-5,3.61-11.28,3.5-16.36,6.46-4.12,2.4-5.64,7.27-6.41,11.67-.19,1.07,1.45,1.52,1.63.45Z"/><path class="cls-5" d="M210.53,74.33c6.32-7.48,7.26-16.26,3.48-25.21-2.05-4.87-5.72-8.77-7.5-13.74-1.35-3.75-2.44-8.36.05-11.9a6.29,6.29,0,0,1,4.3-2.76c6-.52,7.33,9.53.14,8.13-1.07-.21-1.52,1.43-.45,1.63,5.46,1.06,9.89-4.46,6-9.43-3.21-4.14-9.44-1.76-11.71,1.94-4,6.44.26,14.73,4,20.2,6.44,9.41,8.22,20.74.44,29.94-.7.83.49,2,1.2,1.2Z"/><text class="cls-6" transform="translate(54.44 378.38)">Ar<tspan class="cls-7" x="36.63" y="0">c</tspan><tspan x="55.35" y="0">h</tspan><tspan class="cls-8" x="74.64" y="0">i</tspan><tspan class="cls-9" x="84.17" y="0">t</tspan><tspan x="94.21" y="0">ec</tspan><tspan class="cls-10" x="132.79" y="0">t</tspan><tspan x="143.4" y="0">u</tspan><tspan class="cls-11" x="162.69" y="0">r</tspan><tspan x="175.87" y="0">e</tspan></text></svg>