<svg id="Layer_1" data-name="Layer 1" xmlns="http://www.w3.org/2000/svg" viewBox="0 0 303 415.48"><defs><style>.cls-1,.cls-2{fill:none;stroke-miterlimit:10;}.cls-1,.cls-2,.cls-3{stroke:#04434a;}.cls-1{stroke-width:1.69px;}.cls-2{stroke-width:1.68px;}.cls-3{font-size:57.06px;fill:#010101;font-family:Simplifica, Simplifica;}.cls-4{letter-spacing:-0.01em;}.cls-5{letter-spacing:-0.03em;}.cls-6{letter-spacing:0em;}</style></defs><title>icon about design</title><path class="cls-1" d="M101.69,211.08c3.49-1.56-1.61-23.16-6.64-37.7-.66-1.92-1.18-3.32-1.36-3.77-3-7.81-9.19-20.56-26.53-45.37C46.25,94.32,32.32,75.07,29.8,76.5a.66.66,0,0,0-.26.29c-4.35,8.71,22.06,56.34,22.06,56.34C66.14,159.37,68.66,165.25,79.27,182,89.3,197.8,98.59,212.46,101.69,211.08Z"/><path class="cls-1" d="M105.39,210.8c5,1.35,11.83,5.31,13.27,7.06,2.37,2.87,3.26,5.87,4.8,11,2.69,9,1,10.3,3.39,13.84,4.31,6.44,13.34,7.42,13,8.75-.2.79-3.41.51-3.67.56-23.93.77-32.76-17.23-32.76-17.23-6-10.09-3.07-21.5-3.07-21.5S100.4,209.44,105.39,210.8Z"/><path class="cls-2" d="M103.84,236.71a16.69,16.69,0,0,1,9.95-1.48c2.82.47,3.81,2.73,6.81,3a9.3,9.3,0,0,0,5.06-1.2"/><polygon class="cls-2" points="200.23 245.55 178.95 231.64 156.27 243.12 154.87 268.49 176.15 282.4 198.82 270.93 200.23 245.55"/><polygon class="cls-2" points="232 247.1 210.72 233.2 188.04 244.67 186.64 270.05 207.92 283.95 230.6 272.48 232 247.1"/><polygon class="cls-2" points="214.7 274.36 193.42 260.45 170.74 271.92 169.34 297.3 190.61 311.2 213.29 299.73 214.7 274.36"/><line class="cls-2" x1="170.74" y1="271.92" x2="143.24" y2="253.86"/><polyline class="cls-2" points="159.74 264.7 161.88 218.7 179.67 210.51 210.72 233.2"/><line class="cls-2" x1="93.14" y1="203.07" x2="101.86" y2="198.65"/><line class="cls-2" x1="91.57" y1="200.86" x2="101.32" y2="195.94"/><polyline class="cls-2" points="230.6 272.48 234.6 291 213.29 299.73 243.63 268.69 249.56 235.01 223.84 241.77 217.47 237.6 257.19 226.61"/><line class="cls-2" x1="231.91" y1="228.16" x2="272.02" y2="217.86"/><line class="cls-2" x1="222.37" y1="225.46" x2="249.2" y2="218.56"/><circle class="cls-2" cx="255.84" cy="214.33" r="4.24"/><text class="cls-3" transform="translate(57.74 378.87)">Art &amp; D<tspan class="cls-4" x="115.78" y="0">e</tspan><tspan class="cls-5" x="134.5" y="0">s</tspan><tspan class="cls-6" x="152.36" y="0">ign</tspan></text></svg>