<svg id="Layer_1" data-name="Layer 1" xmlns="http://www.w3.org/2000/svg" viewBox="0 0 245.99 415.48"><defs><style>.cls-1{fill:none;stroke-miterlimit:10;stroke-width:1.69px;}.cls-1,.cls-3,.cls-4{stroke:#04434a;}.cls-2{fill:#04434a;}.cls-3{font-size:30.5px;}.cls-3,.cls-4{fill:#010101;font-family:Simplifica, Simplifica;}.cls-4{font-size:57.06px;}</style></defs><title>icon about me</title><path class="cls-1" d="M123.13,277.71H46a11.82,11.82,0,0,1-9.18-9.33V180.82a10,10,0,0,1,9.1-9.1H196.74a9.93,9.93,0,0,1,6.29,2.65,10.24,10.24,0,0,1,3,7.94l0,85.4a9.85,9.85,0,0,1-2.17,5.9,10.06,10.06,0,0,1-6.79,3.53l-41.21.56a5.79,5.79,0,0,0-2.48,2.91,6.22,6.22,0,0,0,.33,4.3c2.65,7,4,10.54,7.61,14.4,6.55,6.94,13.14,8,12.74,9.43s-8.66,1.05-15.89-.83A48.23,48.23,0,0,1,139.64,299a47.74,47.74,0,0,1-14.23-18.7Z"/><path class="cls-2" d="M180.45,136.68a39.39,39.39,0,0,0-41.24,3.9.86.86,0,0,0-.17,1.33,28.64,28.64,0,0,0,36.67,2.19c.87-.64,0-2.11-.86-1.46a26.93,26.93,0,0,1-34.62-1.93l-.17,1.33a37.74,37.74,0,0,1,39.53-3.9c1,.48,1.83-1,.86-1.46Z"/><path class="cls-2" d="M140.37,141.74c9.16-13,26.36-12.68,40-8,1,.35,1.48-1.28.45-1.63-14.54-5-32.33-4.91-42,8.77-.63.89.84,1.74,1.46.86Z"/><path class="cls-2" d="M164.27,130.3l1.85-3.4c.52-1-.94-1.81-1.46-.86l-1.85,3.4c-.52,1,.94,1.81,1.46.86Z"/><path class="cls-2" d="M169.3,130.7l2-3.18c.58-.93-.89-1.78-1.46-.86l-2,3.18c-.58.93.89,1.78,1.46.86Z"/><path class="cls-2" d="M174.3,131.63l2.21-2.34c.75-.79-.45-2-1.2-1.2l-2.21,2.34c-.75.79.45,2,1.2,1.2Z"/><path class="cls-2" d="M159.2,133.29c-9.62,4.23-2.6,17.46,6.54,15.1a8.14,8.14,0,0,0,5.58-11.07c-2-4.48-7.63-5.7-11.92-4.12-1,.37-.58,2,.45,1.63,2.94-1.08,6.7-.83,8.93,1.63,3.6,4,.41,9.9-4.49,10.46-7,.79-11.56-8.95-4.23-12.17C161.05,134.32,160.19,132.86,159.2,133.29Z"/><path class="cls-2" d="M127.66,148.56a27.25,27.25,0,0,0,1.72,11.29c.5,1.21,1.47,2.17,2,3.31,2.06,4.69-1,6-4.13,7.4-1,.45-.13,1.91.86,1.46,2.69-1.22,7.09-3.47,6.26-7.18-.39-1.73-2-2.93-2.85-4.43-1.89-3.51-2.28-8-2.14-11.85,0-1.09-1.66-1.09-1.69,0Z"/><text class="cls-3" transform="translate(169.56 258.8)">hi</text><text class="cls-4" transform="translate(46.36 378.38)">About Me</text></svg>