<svg xmlns="http://www.w3.org/2000/svg" viewBox="0 0 2967.15 1380.37"><defs><style>.cls-1,.cls-10,.cls-11,.cls-12,.cls-13,.cls-14,.cls-15,.cls-16,.cls-17,.cls-2,.cls-3,.cls-4,.cls-5,.cls-6,.cls-7,.cls-8,.cls-9{fill:none;stroke-miterlimit:10;}.cls-1,.cls-2,.cls-9{stroke:#b3b3b3;}.cls-1,.cls-11,.cls-16,.cls-3,.cls-5,.cls-7{stroke-width:4px;}.cls-12,.cls-13,.cls-14,.cls-2{stroke-width:2.71px;}.cls-14,.cls-3{stroke:#666;}.cls-12,.cls-15,.cls-4{stroke:gray;}.cls-4{stroke-width:3.59px;}.cls-10,.cls-5{stroke:#999;}.cls-16,.cls-6{stroke:#e6e6e6;}.cls-10,.cls-15,.cls-17,.cls-6,.cls-8,.cls-9{stroke-width:4.04px;}.cls-13,.cls-7,.cls-8{stroke:#ccc;}.cls-11,.cls-17{stroke:#f2f2f2;}.cls-18,.cls-19{font-size:250px;}.cls-18,.cls-19,.cls-20{fill:#00424a;font-family:Elianto-Regular, Elianto;}.cls-18{letter-spacing:0.13em;}.cls-20{font-size:274px;}</style></defs><title>website front page</title><g id="crystals"><path class="cls-1" d="M101.68,0c12,12.72,588.06,486.77,588.06,486.77L2175.72,0" transform="translate(-100.22 14.65)"/><polyline class="cls-2" points="620.77 14.65 751.87 527.41 1005.77 474.6 1097.17 515.23 1174.35 870.68 896.09 846.3"/><line class="cls-2" x1="751.87" y1="527.41" x2="896.09" y2="846.3"/><line class="cls-2" x1="1005.77" y1="474.6" x2="940.78" y2="14.65"/><line class="cls-2" x1="1097.17" y1="515.23" x2="1449.73" y2="0.86"/><line class="cls-2" x1="1174.35" y1="870.68" x2="1890.19" y2="0.86"/><polyline class="cls-3" points="443.33 14.65 287.36 622.09 589.51 501.42"/><path class="cls-4" d="M555.17,13.38" transform="translate(-100.22 14.65)"/><path class="cls-5" d="M3387,871.39" transform="translate(-100.22 14.65)"/><path class="cls-5" d="M2947,486.77" transform="translate(-100.22 14.65)"/><polyline class="cls-6" points="869.08 105.42 1483.92 841.73 1751.29 760.49 1839.85 982.02 2174.08 870.68"/><polyline class="cls-5" points="1267.99 1156.74 1601.1 1299.5 1687.41 844.05 1502.85 688.08 1399.78 740.66"/><line class="cls-7" x1="1480.61" y1="1147.25" x2="1687.41" y2="844.05"/><line class="cls-4" x1="563.48" y1="682.32" x2="510.85" y2="532.84"/><polyline class="cls-8" points="1872.18 435.77 2298.78 203.65 2282.78 14.65"/><polyline class="cls-8" points="1294.47 908.63 1803.95 1377.51 2072.15 1083.48 1753.16 570.42"/><line class="cls-9" x1="1590.09" y1="761.8" x2="1753.16" y2="570.42"/><line class="cls-8" x1="1753.16" y1="570.42" x2="1543.59" y2="14.65"/><line class="cls-10" x1="1872.18" y1="435.77" x2="1751.29" y2="760.49"/><path class="cls-11" d="M3000,351c-3,0-611.17-107.61-611.17-107.61" transform="translate(-100.22 14.65)"/><polyline class="cls-7" points="2914.78 365.65 2828.78 403.65 2964.78 829.65 2386.78 1201.65 2148.78 1006.01"/><line class="cls-12" x1="1322.91" y1="686.86" x2="1110.73" y2="577.66"/><polyline class="cls-13" points="1038.48 858.77 992.77 1015.15 1206.1 1159.65 1480.43 1146.73"/><line class="cls-14" x1="992.78" y1="1015.15" x2="1483.92" y2="841.73"/><line class="cls-15" x1="869.08" y1="105.42" x2="940.78" y2="14.65"/><polyline class="cls-11" points="537.16 14.65 640.86 484.6 751.87 527.41 563.48 682.32"/><path class="cls-16" d="M3000,138.73c-18,0-551.07,115.29-551.07,115.29L2399,189,2249,991.36" transform="translate(-100.22 14.65)"/><polyline class="cls-6" points="2899.78 741.44 2237.91 529.21 1837.39 529.21"/><line class="cls-10" x1="2135.41" y1="292.54" x2="2049.52" y2="28.03"/><polyline class="cls-10" points="1256.36 282.98 1238.35 547.64 1464.83 517.72 1648.38 292.54 1378.06 105.42"/><line class="cls-9" x1="2757.78" y1="181.42" x2="2282.78" y2="14.65"/><line class="cls-17" x1="2075.5" y1="108.04" x2="1671.63" y2="354.19"/></g><g id="name"><text class="cls-18" transform="translate(1919.66 519.78) scale(1.05 1)">PECK</text><text class="cls-19" transform="translate(2770.16 519.78)"> </text><text class="cls-19" transform="translate(1919.66 722.46)">HSIAO </text><text class="cls-20" transform="translate(1919.19 945.63)">TYNG</text></g></svg>